<svg width="128" height="128" viewBox="0 0 128 128" xmlns="http://www.w3.org/2000/svg">
  <defs>
    <!-- Main gradient background -->
    <linearGradient id="bgGradient" x1="0%" y1="0%" x2="100%" y2="100%">
      <stop offset="0%" style="stop-color:#667eea;stop-opacity:1" />
      <stop offset="50%" style="stop-color:#764ba2;stop-opacity:1" />
      <stop offset="100%" style="stop-color:#f093fb;stop-opacity:1" />
    </linearGradient>
    
    <!-- Inner shadow gradient -->
    <radialGradient id="shadowGradient" cx="50%" cy="50%" r="50%">
      <stop offset="0%" style="stop-color:rgba(255,255,255,0.1);stop-opacity:1" />
      <stop offset="100%" style="stop-color:rgba(0,0,0,0.2);stop-opacity:1" />
    </radialGradient>
    
    <!-- Tool gradient -->
    <linearGradient id="toolGradient" x1="0%" y1="0%" x2="100%" y2="100%">
      <stop offset="0%" style="stop-color:#667eea;stop-opacity:1" />
      <stop offset="100%" style="stop-color:#764ba2;stop-opacity:1" />
    </linearGradient>
  </defs>
  
  <!-- Background with rounded corners -->
  <rect width="128" height="128" rx="25" ry="25" fill="url(#bgGradient)"/>
  
  <!-- Inner shadow overlay -->
  <rect width="128" height="128" rx="25" ry="25" fill="url(#shadowGradient)"/>
  
  <!-- Left code bracket -->
  <path d="M32 38 L22 38 L22 64 L22 90 L32 90" 
        stroke="white" 
        stroke-width="5" 
        stroke-linecap="round" 
        stroke-linejoin="round" 
        fill="none"/>
  
  <!-- Right code bracket -->
  <path d="M96 38 L106 38 L106 64 L106 90 L96 90" 
        stroke="white" 
        stroke-width="5" 
        stroke-linecap="round" 
        stroke-linejoin="round" 
        fill="none"/>
  
  <!-- Wrench tool (rotated) -->
  <g transform="translate(64,64) rotate(-30)">
    <!-- Wrench handle -->
    <rect x="-2" y="-16" width="4" height="32" fill="white" rx="2"/>
    
    <!-- Wrench head -->
    <circle cx="0" cy="-16" r="6" fill="white"/>
    
    <!-- Wrench opening -->
    <rect x="-5" y="-20" width="10" height="4" fill="url(#toolGradient)" rx="1"/>
  </g>
  
  <!-- Screwdriver tool (rotated opposite) -->
  <g transform="translate(64,64) rotate(30)">
    <!-- Screwdriver handle -->
    <rect x="-1.5" y="-14" width="3" height="22" fill="white" rx="1.5"/>
    
    <!-- Screwdriver tip -->
    <polygon points="0,8 -1.5,14 1.5,14" fill="white"/>
    
    <!-- Handle grip -->
    <rect x="-4" y="-16" width="8" height="6" fill="#ffd700" rx="2"/>
  </g>
  
  <!-- Color palette dots (representing color detection) -->
  <circle cx="45" cy="100" r="3.5" fill="#ff6b6b" stroke="white" stroke-width="1"/>
  <circle cx="64" cy="100" r="3.5" fill="#4ecdc4" stroke="white" stroke-width="1"/>
  <circle cx="83" cy="100" r="3.5" fill="#45b7d1" stroke="white" stroke-width="1"/>
  
  <!-- Small gear accent -->
  <g transform="translate(100,28)">
    <!-- Gear teeth -->
    <polygon points="0,-8 2.5,-5.5 5.5,-5.5 8,0 5.5,5.5 2.5,5.5 0,8 -2.5,5.5 -5.5,5.5 -8,0 -5.5,-5.5 -2.5,-5.5" 
             fill="rgba(255,255,255,0.9)"/>
    
    <!-- Gear center -->
    <circle cx="0" cy="0" r="2.5" fill="url(#toolGradient)"/>
  </g>
  
  <!-- Subtle highlight on top -->
  <ellipse cx="64" cy="25" rx="40" ry="8" fill="rgba(255,255,255,0.1)"/>
</svg>
